<svg width="32" height="32" viewBox="0 0 32 32" fill="none" xmlns="http://www.w3.org/2000/svg">
<g id="streamline:wave-signal">
<path id="Vector" d="M1.14285 16.1829H6.14857C6.35934 16.1804 6.56567 16.122 6.74641 16.0136C6.92716 15.9051 7.07581 15.7506 7.17714 15.5657L11.2914 7.33715C11.3928 7.13228 11.5545 6.96334 11.7547 6.85302C11.9549 6.7427 12.1841 6.69629 12.4114 6.72001C12.6379 6.73531 12.854 6.82047 13.03 6.96375C13.2061 7.10703 13.3333 7.30137 13.3943 7.52001L18.4914 24.48C18.5583 24.7101 18.6958 24.9133 18.8845 25.0609C19.0732 25.2086 19.3035 25.2932 19.5429 25.3029C19.7672 25.2954 19.9843 25.2221 20.1673 25.092C20.3502 24.9619 20.4907 24.7809 20.5714 24.5714L23.7029 16.9143C23.7891 16.6995 23.9373 16.5152 24.1286 16.385C24.3199 16.2547 24.5457 16.1844 24.7771 16.1829H30.8571" stroke="#111111" stroke-linecap="round" stroke-linejoin="round"/>
</g>
</svg>
