<svg width="412" height="175" viewBox="0 0 412 175" fill="none" xmlns="http://www.w3.org/2000/svg">
<g clip-path="url(#clip0_2_69)">
<path d="M-18.5 87.7831H152.375C153.528 87.7698 154.656 87.4503 155.644 86.8572C156.633 86.2641 157.446 85.4189 158 84.4081L180.5 39.4081C181.055 38.2877 181.939 37.3638 183.033 36.7605C184.128 36.1572 185.382 35.9034 186.625 36.0331C187.863 36.1168 189.045 36.5825 190.008 37.366C190.971 38.1496 191.667 39.2124 192 40.4081L219.875 133.158C220.241 134.416 220.993 135.528 222.025 136.335C223.056 137.143 224.316 137.605 225.625 137.658C226.852 137.617 228.039 137.216 229.04 136.505C230.04 135.794 230.809 134.803 231.25 133.658L248.375 91.7831C248.847 90.6084 249.657 89.6007 250.703 88.8884C251.75 88.176 252.984 87.7912 254.25 87.7831H419" stroke="#00D1FF" stroke-width="4" stroke-linecap="round" stroke-linejoin="round"/>
</g>
<defs>
<clipPath id="clip0_2_69">
<rect width="412" height="175" fill="white"/>
</clipPath>
</defs>
</svg>
